<svg width="342" height="281" viewBox="0 0 342 281" fill="none" xmlns="http://www.w3.org/2000/svg">
<g clip-path="url(#clip0_11_169)">
<path d="M270.165 212.397C251.881 225.33 218.46 224.827 186.214 227.156C153.975 229.352 122.739 234.503 97.8038 225.851C72.704 217.19 53.7267 194.98 43.7704 170.324C33.6497 145.659 32.3722 118.801 45.5923 98.4849C58.6414 78.2916 86.1747 64.9024 112.551 61.3533C139.092 57.8126 164.634 64.2521 195.51 66.2101C226.557 68.0447 263.26 65.546 280.745 78.1771C298.229 90.8081 296.653 118.709 294.124 145.902C291.766 172.971 288.613 199.472 270.165 212.397Z" fill="#F2F4F8"/>
</g>
<defs>
<clipPath id="clip0_11_169">
<rect width="263.63" height="329.1" fill="white" transform="translate(342 17) rotate(92.8961)"/>
</clipPath>
</defs>
</svg>
