<svg width="246" height="195" viewBox="0 0 246 195" fill="none" xmlns="http://www.w3.org/2000/svg">
<g clip-path="url(#clip0_11_115)">
<path d="M65.2937 44.8214L36.0296 40.9344L41.9517 11.0538L73.3885 17.2384L65.2937 44.8214Z" fill="#2F2E41"/>
<path d="M37.1628 174.091V50.8219C37.1628 48.588 38.9868 46.7706 41.229 46.7706H241.934C244.176 46.7706 246 48.588 246 50.8219V174.091C246 176.325 244.176 178.142 241.934 178.142H41.229C38.9868 178.142 37.1628 176.325 37.1628 174.091ZM245.263 50.8219C245.263 48.9898 243.773 47.5045 241.934 47.5045H41.229C39.3901 47.5045 37.8994 48.9898 37.8994 50.8219V174.091C37.8994 175.923 39.3901 177.408 41.229 177.408H183.889C217.785 177.408 245.263 150.031 245.263 116.26V50.8219Z" fill="#3F3D56"/>
<path d="M225.679 65.2273L222.648 63.7967C223.891 65.5254 224.963 68.2252 225.536 70.3736C226.507 68.3724 228.073 65.9238 229.622 64.4611L226.419 65.2823C228.393 55.643 235.818 48.7229 244.321 48.7229L244.441 48.3748C235.56 48.3748 227.695 55.1989 225.679 65.2273Z" fill="#3F3D56"/>
<path d="M239.631 79.9145H220.478C219.666 79.9145 219.005 79.256 219.005 78.4467C219.005 77.6373 219.666 76.9788 220.478 76.9788H239.631C240.443 76.9788 241.104 77.6373 241.104 78.4467C241.104 79.256 240.443 79.9145 239.631 79.9145Z" fill="black"/>
<path d="M182.766 90.9392V129.837C182.766 133.277 179.957 136.075 176.505 136.075H137.463C134.01 136.075 131.201 133.277 131.201 129.837V90.9392C131.201 87.4993 134.01 84.7009 137.463 84.7009H176.505C179.957 84.7009 182.766 87.4993 182.766 90.9392ZM174.083 135.341C178.471 135.341 182.029 131.797 182.029 127.424V110.226C182.029 96.5343 170.889 85.4348 157.146 85.4348H137.463C134.411 85.4348 131.938 87.8992 131.938 90.9392V124.41C131.938 130.447 136.85 135.341 142.91 135.341H174.083Z" fill="#3F3D56"/>
<path d="M162.181 100.587H149.577C149.259 100.587 149 100.33 149 100.013C149 99.6966 149.259 99.4391 149.577 99.4391H162.181C162.499 99.4391 162.757 99.6966 162.757 100.013C162.757 100.33 162.499 100.587 162.181 100.587Z" fill="#3F3D56"/>
<path d="M162.181 112.83H149.577C149.259 112.83 149 112.573 149 112.256C149 111.94 149.259 111.682 149.577 111.682H162.181C162.499 111.682 162.757 111.94 162.757 112.256C162.757 112.573 162.499 112.83 162.181 112.83Z" fill="#3F3D56"/>
<path d="M155.919 129.711H143.315C142.998 129.711 142.739 129.453 142.739 129.136C142.739 128.82 142.998 128.562 143.315 128.562H155.919C156.237 128.562 156.496 128.82 156.496 129.136C156.496 129.453 156.237 129.711 155.919 129.711Z" fill="#3F3D56"/>
<path d="M168.944 106.713H142.813C142.495 106.713 142.237 106.455 142.237 106.139C142.237 105.822 142.495 105.565 142.813 105.565H168.944C169.262 105.565 169.521 105.822 169.521 106.139C169.521 106.455 169.262 106.713 168.944 106.713Z" fill="#3F3D56"/>
<path d="M67.6308 111.049H24.4362C28.0567 103 30.2825 95.3345 26.8029 89.2369L67.6308 86.8789C65.5905 95.1103 65.3411 103.188 67.6308 111.049Z" fill="#FFB6B6"/>
<path d="M82.5072 178.142H50.7522C50.5225 178.142 50.313 178.011 50.2128 177.805L50.0194 177.408L45.7995 168.778C45.5278 168.222 44.6916 168.394 44.6618 169.011L44.2552 177.408L44.2468 177.575C44.2309 177.893 43.9675 178.142 43.6481 178.142H12.3828C12.0669 178.142 11.805 177.897 11.7842 177.583C11.7804 177.525 11.7766 177.466 11.7731 177.408C9.77679 146.712 16.9553 125.905 21.1652 116.596L21.1689 116.592C22.8227 112.93 24.0234 111.047 24.0234 111.047L24.4396 111.044H24.4433L32.852 110.897H32.8557L40.3031 110.772L45.931 110.68L48.1888 110.64H48.1925L49.6069 110.618L56.6381 110.497L62.9179 110.39L67.4262 110.317H67.5514L68.2217 113.198V113.201L68.2475 113.33V113.333L68.3617 113.807L68.3654 113.821L68.5937 114.816V114.823L68.6085 114.878V114.882L68.6637 115.12L68.6674 115.131L69.1978 117.418L70.056 121.135L71.1867 125.997L72.6121 132.169L73.334 135.278L74.3248 139.56L83.0908 177.408C83.1792 177.783 82.8937 178.142 82.5072 178.142Z" fill="#2F2E41"/>
<path d="M61.3947 39.3688L44.2048 38.7713L37.41 47.8493L33.8347 48.6228C28.4752 49.7823 24.7986 54.7071 25.2257 60.1547L26.8499 97.8955L27.5865 102.299L68.1017 108.904L77.2116 51.7879L65.2243 47.4972L61.3947 39.3688Z" fill="black"/>
<path d="M55.1215 37.9373C63.6432 37.9373 70.5514 31.0546 70.5514 22.5644C70.5514 14.0741 63.6432 7.19144 55.1215 7.19144C46.5998 7.19144 39.6916 14.0741 39.6916 22.5644C39.6916 31.0546 46.5998 37.9373 55.1215 37.9373Z" fill="#FFB6B6"/>
<path d="M226.953 176.715L213.576 171.762C211.57 171.019 210.544 168.788 211.289 166.789L224.431 131.558C225.177 129.559 227.416 128.537 229.422 129.28L242.799 134.233C244.805 134.975 245.831 137.206 245.086 139.205C240.057 153.445 234.572 169.446 231.944 174.437C231.198 176.436 228.959 177.458 226.953 176.715Z" fill="#3F3D56"/>
<path d="M241.79 148.608C241.705 148.577 241.611 148.62 241.579 148.705L239.749 153.612C239.717 153.697 239.76 153.791 239.845 153.823C239.93 153.854 240.025 153.811 240.056 153.726L241.887 148.819C241.919 148.734 241.875 148.64 241.79 148.608Z" fill="#3F3D56"/>
<path d="M244.739 139.077L231.598 174.308C230.949 176.048 229.058 176.968 227.299 176.442L227.298 176.442C227.272 176.434 227.246 176.426 227.219 176.417C227.173 176.403 227.127 176.386 227.081 176.369C227.081 176.369 226.917 176.294 226.616 176.157C226.312 176.018 225.87 175.815 225.319 175.56C225.154 175.484 224.98 175.403 224.797 175.318C224.431 175.147 224.03 174.96 223.6 174.757C223.428 174.677 223.251 174.593 223.07 174.508C222.145 174.072 221.11 173.58 220.021 173.053C219.837 172.964 219.651 172.875 219.465 172.784C219.416 172.76 211.483 167.328 211.636 166.917L224.778 131.686C225.454 129.874 227.475 128.951 229.294 129.625L231.26 130.352C231.574 130.469 231.735 130.806 231.646 131.128C231.64 131.15 231.635 131.171 231.631 131.193C231.571 131.528 231.778 131.853 232.098 131.972L239.008 134.53C239.328 134.649 239.698 134.537 239.872 134.245C239.884 134.225 239.894 134.206 239.904 134.186C240.047 133.884 240.39 133.733 240.704 133.849L242.67 134.577C244.489 135.251 245.415 137.265 244.739 139.077Z" fill="black"/>
<path d="M222.246 137.183C222.161 137.151 222.066 137.194 222.034 137.279L221.577 138.506C221.545 138.59 221.589 138.685 221.674 138.716C221.758 138.748 221.853 138.704 221.885 138.62L222.342 137.393C222.374 137.308 222.331 137.214 222.246 137.183Z" fill="#3F3D56"/>
<path d="M220.873 140.863C220.788 140.832 220.693 140.875 220.662 140.96L219.775 143.337C219.743 143.421 219.787 143.516 219.872 143.547C219.956 143.579 220.051 143.535 220.083 143.451L220.969 141.074C221.001 140.989 220.958 140.895 220.873 140.863Z" fill="#3F3D56"/>
<path d="M219.614 144.237C219.529 144.206 219.435 144.249 219.403 144.334L218.516 146.711C218.485 146.795 218.528 146.89 218.613 146.921C218.698 146.953 218.793 146.909 218.824 146.825L219.711 144.448C219.742 144.363 219.699 144.269 219.614 144.237Z" fill="#3F3D56"/>
<path d="M231.005 130.869L228.063 129.78C228.046 129.774 228.028 129.782 228.022 129.799L227.901 130.123C227.895 130.139 227.903 130.157 227.92 130.163L230.862 131.253C230.878 131.259 230.897 131.251 230.903 131.234L231.024 130.91C231.03 130.894 231.021 130.875 231.005 130.869Z" fill="#E6E6E6"/>
<path d="M240.962 134.971C241.143 134.971 241.29 134.824 241.29 134.643C241.29 134.463 241.143 134.316 240.962 134.316C240.781 134.316 240.634 134.463 240.634 134.643C240.634 134.824 240.781 134.971 240.962 134.971Z" fill="#E6E6E6"/>
<path d="M241.809 135.284C241.99 135.284 242.137 135.137 242.137 134.957C242.137 134.776 241.99 134.63 241.809 134.63C241.627 134.63 241.48 134.776 241.48 134.957C241.48 135.137 241.627 135.284 241.809 135.284Z" fill="#E6E6E6"/>
<path d="M242.655 135.597C242.837 135.597 242.984 135.451 242.984 135.27C242.984 135.09 242.837 134.943 242.655 134.943C242.474 134.943 242.327 135.09 242.327 135.27C242.327 135.451 242.474 135.597 242.655 135.597Z" fill="#E6E6E6"/>
<path d="M194.155 65.4633H182.604C181.117 65.4633 179.908 64.2585 179.908 62.7776V49.801C179.908 48.3201 181.117 47.1153 182.604 47.1153H194.155C195.641 47.1153 196.851 48.3201 196.851 49.801V62.7776C196.851 64.2585 195.641 65.4633 194.155 65.4633Z" fill="white"/>
<path d="M194.155 65.4633H182.604C181.117 65.4633 179.908 64.2585 179.908 62.7776C179.327 57.9992 179.167 53.549 179.908 49.801C179.908 48.3201 181.117 47.1153 182.604 47.1153H194.155C195.641 47.1153 196.851 48.3201 196.851 49.801V62.7776C196.851 64.2585 195.641 65.4633 194.155 65.4633ZM182.604 47.4823C181.32 47.4823 180.276 48.5224 180.276 49.801V62.7776C180.276 64.0562 181.32 65.0963 182.604 65.0963H194.155C195.438 65.0963 196.482 64.0562 196.482 62.7776V49.801C196.482 48.5224 195.438 47.4823 194.155 47.4823H182.604Z" fill="#3F3D56"/>
<path d="M192.988 55.0049H183.47C183.066 55.0049 182.738 54.6777 182.738 54.2755C182.738 53.8733 183.066 53.5461 183.47 53.5461H192.988C193.392 53.5461 193.72 53.8733 193.72 54.2755C193.72 54.6777 193.392 55.0049 192.988 55.0049Z" fill="black"/>
<path d="M192.988 59.0415H183.47C183.066 59.0415 182.738 58.7143 182.738 58.3121C182.738 57.9099 183.066 57.5826 183.47 57.5826H192.988C193.392 57.5826 193.72 57.9099 193.72 58.3121C193.72 58.7143 193.392 59.0415 192.988 59.0415Z" fill="black"/>
<path d="M192.988 50.9684H183.47C183.066 50.9684 182.738 50.6411 182.738 50.2389C182.738 49.8367 183.066 49.5095 183.47 49.5095H192.988C193.392 49.5095 193.72 49.8367 193.72 50.2389C193.72 50.6411 193.392 50.9684 192.988 50.9684Z" fill="black"/>
<path d="M49.875 42.7232C50.7205 44.3112 51.8559 45.5773 53.0597 46.3964L60.155 62.0312L67.5235 58.4498L59.5326 42.9755C59.527 41.5231 59.1117 39.8765 58.2662 38.2885C56.3346 34.6607 52.8904 32.7125 50.5733 33.9371C48.2561 35.1618 47.9435 39.0954 49.875 42.7232Z" fill="#FFB6B6"/>
<path d="M65.8516 52.5779C65.8516 52.5779 76.6586 46.9357 80.0117 52.86C82.8726 57.9147 84.9397 83.208 85.4849 90.5247C85.5806 91.809 85.2443 93.0844 84.5287 94.1569C82.4094 97.3329 77.8407 97.6356 75.3179 94.7673L53.4192 51.8085L63.8066 46.8901L66.347 53.0201L65.8516 52.5779Z" fill="black"/>
<path d="M88.9566 113.098C89.1938 112.763 89.3337 112.354 89.3337 111.913V74.2654C89.3337 73.1293 88.4093 72.2084 87.269 72.2084H30.1499C29.0097 72.2084 28.0853 73.1293 28.0853 74.2654V111.913C28.0853 112.354 28.2251 112.763 28.4624 113.098H21.3286V115.071C46.1313 116.453 71.0519 116.453 96.0904 115.071V113.098H88.9566Z" fill="#3F3D56"/>
<path d="M150.325 195H138.774C137.287 195 136.078 193.795 136.078 192.314V179.338C136.078 177.857 137.287 176.652 138.774 176.652H150.325C151.811 176.652 153.021 177.857 153.021 179.338V192.314C153.021 193.795 151.811 195 150.325 195Z" fill="white"/>
<path d="M150.325 195H138.774C137.287 195 136.078 193.795 136.078 192.314C135.497 187.536 135.337 183.086 136.078 179.338C136.078 177.857 137.287 176.652 138.774 176.652H150.325C151.811 176.652 153.021 177.857 153.021 179.338V192.314C153.021 193.795 151.811 195 150.325 195ZM138.774 177.019C137.49 177.019 136.446 178.059 136.446 179.338V192.314C136.446 193.593 137.49 194.633 138.774 194.633H150.325C151.608 194.633 152.652 193.593 152.652 192.314V179.338C152.652 178.059 151.608 177.019 150.325 177.019H138.774Z" fill="#3F3D56"/>
<path d="M149.158 184.542H139.64C139.236 184.542 138.908 184.214 138.908 183.812C138.908 183.41 139.236 183.083 139.64 183.083H149.158C149.562 183.083 149.89 183.41 149.89 183.812C149.89 184.214 149.562 184.542 149.158 184.542Z" fill="black"/>
<path d="M149.158 188.578H139.64C139.236 188.578 138.908 188.251 138.908 187.849C138.908 187.447 139.236 187.119 139.64 187.119H149.158C149.562 187.119 149.89 187.447 149.89 187.849C149.89 188.251 149.562 188.578 149.158 188.578Z" fill="black"/>
<path d="M149.158 180.505H139.64C139.236 180.505 138.908 180.178 138.908 179.776C138.908 179.373 139.236 179.046 139.64 179.046H149.158C149.562 179.046 149.89 179.373 149.89 179.776C149.89 180.178 149.562 180.505 149.158 180.505Z" fill="black"/>
<path d="M49.5532 108.117C47.749 108.126 46.0965 108.541 44.8097 109.223L27.6162 108.232L27.3822 116.397L44.8485 116.523C46.1424 117.192 47.7992 117.59 49.6035 117.58C53.7253 117.558 57.0553 115.422 57.0415 112.809C57.0276 110.196 53.675 108.095 49.5532 108.117Z" fill="#FFB6B6"/>
<path d="M33.0343 48.6509C33.0343 48.6509 18.4185 47.0283 14.6953 56.0621C11.8512 62.9631 4.46229 89.8592 0.315987 105.258C-1.19992 110.888 2.92124 116.462 8.76713 116.693L34.5846 117.711L36.0778 106.332L17.6419 103.4L27.9548 72.5753L33.0343 48.6509Z" fill="black"/>
<path d="M70.5554 10.6963C71.2974 6.95257 66.7436 5.49854 63.3333 3.76146L60.4379 1.32163C57.4025 -0.224509 53.8533 -0.423328 50.663 0.774057L40.7067 4.076C36.1875 5.77218 34.6105 9.80987 32.0063 13.8618L27.6411 19.668C25.0775 23.6567 25.8439 29.8841 26.4451 34.5825L26.697 36.5513L24.2986 42.2655L42.731 45.544L46.4462 36.7257L44.1277 32.5344C43.3051 31.0473 43.6343 29.19 44.9183 28.0735C49.5374 24.0573 50.4223 17.1644 50.4223 17.1644L54.3271 20.5952C57.1649 21.656 59.7845 22.2029 62.1897 22.2444C64.8349 22.2901 67.2206 21.7244 69.3516 20.5587L69.7267 26.2432C68.6252 32.9631 66.9812 34.4408 59.5745 39.5817L68.489 48.4378L68.9068 44.8315C69.9006 36.2526 74.1944 30.2818 75.3568 23.3796C76.1606 18.6068 74.3051 13.7726 70.5554 10.6963Z" fill="#2F2E41"/>
</g>
<defs>
<clipPath id="clip0_11_115">
<rect width="246" height="195" fill="white"/>
</clipPath>
</defs>
</svg>
